<mxfile host="app.diagrams.net" modified="2023-04-04T07:40:33.245Z" agent="Mozilla/5.0 (Windows NT 10.0; Win64; x64) AppleWebKit/537.36 (KHTML, like Gecko) Chrome/111.0.0.0 Safari/537.36" etag="NZf8cV_obMBgB2Voj5rr" version="21.1.4" type="device">
  <diagram name="Page-1" id="03018318-947c-dd8e-b7a3-06fadd420f32">
    <mxGraphModel dx="1257" dy="691" grid="1" gridSize="10" guides="1" tooltips="1" connect="1" arrows="1" fold="1" page="1" pageScale="1" pageWidth="1100" pageHeight="850" background="none" math="0" shadow="0">
      <root>
        <mxCell id="0" />
        <mxCell id="1" parent="0" />
        <mxCell id="94axbuQM1vNL2HR7D8vH-29" value="" style="rounded=0;whiteSpace=wrap;html=1;" vertex="1" parent="1">
          <mxGeometry x="370" y="160" width="420" height="240" as="geometry" />
        </mxCell>
        <mxCell id="677b7b8949515195-1" value="" style="whiteSpace=wrap;html=1;rounded=0;shadow=0;labelBackgroundColor=none;strokeColor=#000000;strokeWidth=1;fillColor=none;fontFamily=Verdana;fontSize=12;fontColor=#000000;align=center;comic=1;" parent="1" vertex="1">
          <mxGeometry x="20" y="25" width="1060" height="1235" as="geometry" />
        </mxCell>
        <mxCell id="677b7b8949515195-2" value="LOGO" style="whiteSpace=wrap;html=1;rounded=0;shadow=0;labelBackgroundColor=none;strokeWidth=1;fontFamily=Verdana;fontSize=28;align=center;comic=1;" parent="1" vertex="1">
          <mxGeometry x="40" y="60" width="190" height="50" as="geometry" />
        </mxCell>
        <mxCell id="677b7b8949515195-9" value="" style="line;strokeWidth=1;html=1;rounded=0;shadow=0;labelBackgroundColor=none;fillColor=none;fontFamily=Verdana;fontSize=14;fontColor=#000000;align=center;comic=1;" parent="1" vertex="1">
          <mxGeometry x="20" y="140" width="1060" height="10" as="geometry" />
        </mxCell>
        <mxCell id="677b7b8949515195-11" value="Section 1" style="text;html=1;points=[];align=left;verticalAlign=top;spacingTop=-4;fontSize=14;fontFamily=Verdana" parent="1" vertex="1">
          <mxGeometry x="340" y="75" width="60" height="20" as="geometry" />
        </mxCell>
        <mxCell id="677b7b8949515195-12" value="Section 2" style="text;html=1;points=[];align=left;verticalAlign=top;spacingTop=-4;fontSize=14;fontFamily=Verdana" parent="1" vertex="1">
          <mxGeometry x="490" y="75" width="60" height="20" as="geometry" />
        </mxCell>
        <mxCell id="677b7b8949515195-13" value="Section 3" style="text;html=1;points=[];align=left;verticalAlign=top;spacingTop=-4;fontSize=14;fontFamily=Verdana" parent="1" vertex="1">
          <mxGeometry x="623" y="75" width="60" height="20" as="geometry" />
        </mxCell>
        <mxCell id="677b7b8949515195-14" value="Section 4" style="text;html=1;points=[];align=left;verticalAlign=top;spacingTop=-4;fontSize=14;fontFamily=Verdana" parent="1" vertex="1">
          <mxGeometry x="750" y="75" width="60" height="20" as="geometry" />
        </mxCell>
        <mxCell id="94axbuQM1vNL2HR7D8vH-2" value="Login" style="rounded=0;whiteSpace=wrap;html=1;fontSize=20;" vertex="1" parent="1">
          <mxGeometry x="910" y="55" width="120" height="60" as="geometry" />
        </mxCell>
        <mxCell id="94axbuQM1vNL2HR7D8vH-6" value="" style="rounded=0;whiteSpace=wrap;html=1;" vertex="1" parent="1">
          <mxGeometry x="370" y="730" width="420" height="200" as="geometry" />
        </mxCell>
        <mxCell id="94axbuQM1vNL2HR7D8vH-7" value="&lt;h1&gt;Heading&lt;/h1&gt;&lt;p&gt;Lorem ipsum dolor sit amet, consectetur adipisicing elit, sed do eiusmod tempor incididunt ut labore et dolore magna aliqua.&lt;/p&gt;" style="text;html=1;strokeColor=none;fillColor=none;spacing=5;spacingTop=-20;whiteSpace=wrap;overflow=hidden;rounded=0;" vertex="1" parent="1">
          <mxGeometry x="395" y="180" width="390" height="210" as="geometry" />
        </mxCell>
        <mxCell id="94axbuQM1vNL2HR7D8vH-8" value="" style="rounded=0;whiteSpace=wrap;html=1;" vertex="1" parent="1">
          <mxGeometry x="90" y="425" width="160" height="235" as="geometry" />
        </mxCell>
        <mxCell id="94axbuQM1vNL2HR7D8vH-9" value="" style="rounded=0;whiteSpace=wrap;html=1;" vertex="1" parent="1">
          <mxGeometry x="370" y="425" width="160" height="235" as="geometry" />
        </mxCell>
        <mxCell id="94axbuQM1vNL2HR7D8vH-10" value="" style="rounded=0;whiteSpace=wrap;html=1;" vertex="1" parent="1">
          <mxGeometry x="630" y="425" width="160" height="235" as="geometry" />
        </mxCell>
        <mxCell id="94axbuQM1vNL2HR7D8vH-11" value="" style="rounded=0;whiteSpace=wrap;html=1;" vertex="1" parent="1">
          <mxGeometry x="870" y="425" width="160" height="235" as="geometry" />
        </mxCell>
        <mxCell id="94axbuQM1vNL2HR7D8vH-12" value="Photo" style="rounded=0;whiteSpace=wrap;html=1;fontSize=20;" vertex="1" parent="1">
          <mxGeometry x="110" y="440" width="120" height="90" as="geometry" />
        </mxCell>
        <mxCell id="94axbuQM1vNL2HR7D8vH-15" value="Photo" style="rounded=0;whiteSpace=wrap;html=1;fontSize=20;" vertex="1" parent="1">
          <mxGeometry x="650" y="440" width="120" height="90" as="geometry" />
        </mxCell>
        <mxCell id="94axbuQM1vNL2HR7D8vH-16" value="Photo" style="rounded=0;whiteSpace=wrap;html=1;fontSize=20;" vertex="1" parent="1">
          <mxGeometry x="390" y="440" width="120" height="90" as="geometry" />
        </mxCell>
        <mxCell id="94axbuQM1vNL2HR7D8vH-17" value="Photo" style="rounded=0;whiteSpace=wrap;html=1;fontSize=20;" vertex="1" parent="1">
          <mxGeometry x="890" y="440" width="120" height="90" as="geometry" />
        </mxCell>
        <mxCell id="94axbuQM1vNL2HR7D8vH-18" value="Product" style="text;html=1;strokeColor=none;fillColor=none;align=center;verticalAlign=middle;whiteSpace=wrap;rounded=0;fontSize=20;" vertex="1" parent="1">
          <mxGeometry x="140" y="540" width="60" height="30" as="geometry" />
        </mxCell>
        <mxCell id="94axbuQM1vNL2HR7D8vH-21" value="Buy" style="rounded=1;whiteSpace=wrap;html=1;fontSize=20;" vertex="1" parent="1">
          <mxGeometry x="135" y="600" width="70" height="40" as="geometry" />
        </mxCell>
        <mxCell id="94axbuQM1vNL2HR7D8vH-22" value="Buy" style="rounded=1;whiteSpace=wrap;html=1;fontSize=20;" vertex="1" parent="1">
          <mxGeometry x="410" y="600" width="70" height="40" as="geometry" />
        </mxCell>
        <mxCell id="94axbuQM1vNL2HR7D8vH-23" value="Buy" style="rounded=1;whiteSpace=wrap;html=1;fontSize=20;" vertex="1" parent="1">
          <mxGeometry x="675" y="600" width="70" height="40" as="geometry" />
        </mxCell>
        <mxCell id="94axbuQM1vNL2HR7D8vH-24" value="Buy" style="rounded=1;whiteSpace=wrap;html=1;fontSize=20;" vertex="1" parent="1">
          <mxGeometry x="915" y="600" width="70" height="40" as="geometry" />
        </mxCell>
        <mxCell id="94axbuQM1vNL2HR7D8vH-25" value="Product" style="text;html=1;strokeColor=none;fillColor=none;align=center;verticalAlign=middle;whiteSpace=wrap;rounded=0;fontSize=20;" vertex="1" parent="1">
          <mxGeometry x="420" y="540" width="60" height="30" as="geometry" />
        </mxCell>
        <mxCell id="94axbuQM1vNL2HR7D8vH-26" value="Product" style="text;html=1;strokeColor=none;fillColor=none;align=center;verticalAlign=middle;whiteSpace=wrap;rounded=0;fontSize=20;" vertex="1" parent="1">
          <mxGeometry x="680" y="540" width="60" height="30" as="geometry" />
        </mxCell>
        <mxCell id="94axbuQM1vNL2HR7D8vH-27" value="Product" style="text;html=1;strokeColor=none;fillColor=none;align=center;verticalAlign=middle;whiteSpace=wrap;rounded=0;fontSize=20;" vertex="1" parent="1">
          <mxGeometry x="920" y="540" width="60" height="30" as="geometry" />
        </mxCell>
        <mxCell id="94axbuQM1vNL2HR7D8vH-30" value="" style="triangle;whiteSpace=wrap;html=1;" vertex="1" parent="1">
          <mxGeometry x="750" y="810" width="20" height="40" as="geometry" />
        </mxCell>
        <mxCell id="94axbuQM1vNL2HR7D8vH-31" value="" style="triangle;whiteSpace=wrap;html=1;direction=west;" vertex="1" parent="1">
          <mxGeometry x="390" y="810" width="20" height="40" as="geometry" />
        </mxCell>
        <mxCell id="94axbuQM1vNL2HR7D8vH-32" value="Photos" style="text;html=1;strokeColor=none;fillColor=none;align=center;verticalAlign=middle;whiteSpace=wrap;rounded=0;fontSize=30;" vertex="1" parent="1">
          <mxGeometry x="520" y="805" width="140" height="50" as="geometry" />
        </mxCell>
        <mxCell id="94axbuQM1vNL2HR7D8vH-33" value="" style="rounded=0;whiteSpace=wrap;html=1;" vertex="1" parent="1">
          <mxGeometry x="90" y="990" width="160" height="235" as="geometry" />
        </mxCell>
        <mxCell id="94axbuQM1vNL2HR7D8vH-34" value="" style="rounded=0;whiteSpace=wrap;html=1;" vertex="1" parent="1">
          <mxGeometry x="370" y="990" width="160" height="235" as="geometry" />
        </mxCell>
        <mxCell id="94axbuQM1vNL2HR7D8vH-35" value="" style="rounded=0;whiteSpace=wrap;html=1;" vertex="1" parent="1">
          <mxGeometry x="630" y="990" width="160" height="235" as="geometry" />
        </mxCell>
        <mxCell id="94axbuQM1vNL2HR7D8vH-36" value="" style="rounded=0;whiteSpace=wrap;html=1;" vertex="1" parent="1">
          <mxGeometry x="870" y="990" width="160" height="235" as="geometry" />
        </mxCell>
        <mxCell id="94axbuQM1vNL2HR7D8vH-37" value="Photo" style="rounded=0;whiteSpace=wrap;html=1;fontSize=20;" vertex="1" parent="1">
          <mxGeometry x="110" y="1010" width="120" height="90" as="geometry" />
        </mxCell>
        <mxCell id="94axbuQM1vNL2HR7D8vH-38" value="Photo" style="rounded=0;whiteSpace=wrap;html=1;fontSize=20;" vertex="1" parent="1">
          <mxGeometry x="390" y="1010" width="120" height="90" as="geometry" />
        </mxCell>
        <mxCell id="94axbuQM1vNL2HR7D8vH-39" value="Photo" style="rounded=0;whiteSpace=wrap;html=1;fontSize=20;" vertex="1" parent="1">
          <mxGeometry x="650" y="1010" width="120" height="90" as="geometry" />
        </mxCell>
        <mxCell id="94axbuQM1vNL2HR7D8vH-40" value="Photo" style="rounded=0;whiteSpace=wrap;html=1;fontSize=20;" vertex="1" parent="1">
          <mxGeometry x="890" y="1010" width="120" height="90" as="geometry" />
        </mxCell>
        <mxCell id="94axbuQM1vNL2HR7D8vH-41" value="Product" style="text;html=1;strokeColor=none;fillColor=none;align=center;verticalAlign=middle;whiteSpace=wrap;rounded=0;fontSize=20;" vertex="1" parent="1">
          <mxGeometry x="680" y="1110" width="60" height="30" as="geometry" />
        </mxCell>
        <mxCell id="94axbuQM1vNL2HR7D8vH-42" value="Product" style="text;html=1;strokeColor=none;fillColor=none;align=center;verticalAlign=middle;whiteSpace=wrap;rounded=0;fontSize=20;" vertex="1" parent="1">
          <mxGeometry x="420" y="1110" width="60" height="30" as="geometry" />
        </mxCell>
        <mxCell id="94axbuQM1vNL2HR7D8vH-43" value="Product" style="text;html=1;strokeColor=none;fillColor=none;align=center;verticalAlign=middle;whiteSpace=wrap;rounded=0;fontSize=20;" vertex="1" parent="1">
          <mxGeometry x="140" y="1110" width="60" height="30" as="geometry" />
        </mxCell>
        <mxCell id="94axbuQM1vNL2HR7D8vH-44" value="Product" style="text;html=1;strokeColor=none;fillColor=none;align=center;verticalAlign=middle;whiteSpace=wrap;rounded=0;fontSize=20;" vertex="1" parent="1">
          <mxGeometry x="920" y="1110" width="60" height="30" as="geometry" />
        </mxCell>
        <mxCell id="94axbuQM1vNL2HR7D8vH-45" value="Buy" style="rounded=1;whiteSpace=wrap;html=1;fontSize=20;" vertex="1" parent="1">
          <mxGeometry x="915" y="1170" width="70" height="40" as="geometry" />
        </mxCell>
        <mxCell id="94axbuQM1vNL2HR7D8vH-46" value="Buy" style="rounded=1;whiteSpace=wrap;html=1;fontSize=20;" vertex="1" parent="1">
          <mxGeometry x="675" y="1170" width="70" height="40" as="geometry" />
        </mxCell>
        <mxCell id="94axbuQM1vNL2HR7D8vH-47" value="Buy" style="rounded=1;whiteSpace=wrap;html=1;fontSize=20;" vertex="1" parent="1">
          <mxGeometry x="410" y="1170" width="70" height="40" as="geometry" />
        </mxCell>
        <mxCell id="94axbuQM1vNL2HR7D8vH-48" value="Buy" style="rounded=1;whiteSpace=wrap;html=1;fontSize=20;" vertex="1" parent="1">
          <mxGeometry x="135" y="1170" width="70" height="40" as="geometry" />
        </mxCell>
      </root>
    </mxGraphModel>
  </diagram>
</mxfile>
